<svg xmlns="http://www.w3.org/2000/svg" xmlns:xlink="http://www.w3.org/1999/xlink" width="861" zoomAndPan="magnify" viewBox="0 0 645.75 219.75" height="293" preserveAspectRatio="xMidYMid meet"><defs><clipPath id="1f21d05745"><path d="M 432.023438 5.203125 L 644.78125 5.203125 L 644.78125 214.214844 L 432.023438 214.214844 Z M 432.023438 5.203125 " clip-rule="nonzero"></path></clipPath><clipPath id="864928d61c"><path d="M 233 42 L 388 42 L 388 180.691406 L 233 180.691406 Z M 233 42 " clip-rule="nonzero"></path></clipPath></defs><g clip-path="url(#1f21d05745)"><path fill="#ffab00" d="M 538.503906 5.179688 C 597.296875 5.179688 644.957031 52.84375 644.957031 111.636719 C 644.957031 160.445312 612.109375 201.578125 567.316406 214.144531 L 547.410156 143.324219 C 561.253906 139.4375 571.410156 126.722656 571.410156 111.636719 C 571.410156 93.464844 556.675781 78.730469 538.5 78.730469 C 520.328125 78.730469 505.59375 93.464844 505.59375 111.636719 C 505.59375 126.722656 515.75 139.4375 529.59375 143.324219 L 509.6875 214.144531 C 464.894531 201.578125 432.046875 160.445312 432.046875 111.636719 C 432.046875 52.84375 479.707031 5.179688 538.503906 5.179688 Z M 538.503906 5.179688 " fill-opacity="1" fill-rule="evenodd"></path></g><path fill="#ffab00" d="M 184.679688 34.167969 C 164.582031 14.070312 137.324219 2.777344 108.902344 2.777344 C 49.757812 2.777344 1.738281 50.800781 1.738281 109.949219 C 1.738281 169.097656 49.757812 217.117188 108.902344 217.117188 C 137.324219 217.117188 164.582031 205.828125 184.679688 185.726562 L 161.945312 162.992188 C 147.878906 177.0625 128.796875 184.964844 108.902344 184.964844 C 67.5 184.964844 33.886719 151.351562 33.886719 109.949219 C 33.886719 68.542969 67.5 34.929688 108.902344 34.929688 C 128.796875 34.929688 147.878906 42.832031 161.945312 56.902344 Z M 184.679688 34.167969 " fill-opacity="1" fill-rule="evenodd"></path><path fill="#ffc400" d="M 33.125 185.726562 C 53.222656 205.828125 80.480469 217.117188 108.902344 217.117188 C 137.324219 217.117188 164.582031 205.828125 184.679688 185.726562 L 161.945312 162.992188 C 147.878906 177.0625 128.796875 184.964844 108.902344 184.964844 C 89.007812 184.964844 69.925781 177.0625 55.859375 162.992188 Z M 33.125 185.726562 " fill-opacity="1" fill-rule="evenodd"></path><path fill="#ffab00" d="M 92.828125 109.949219 C 92.828125 110.472656 92.800781 111 92.75 111.523438 C 92.699219 112.046875 92.621094 112.566406 92.519531 113.082031 C 92.414062 113.601562 92.289062 114.109375 92.136719 114.613281 C 91.980469 115.117188 91.804688 115.613281 91.605469 116.097656 C 91.402344 116.585938 91.175781 117.0625 90.929688 117.527344 C 90.679688 117.988281 90.410156 118.441406 90.117188 118.878906 C 89.824219 119.316406 89.511719 119.738281 89.179688 120.144531 C 88.84375 120.550781 88.492188 120.941406 88.121094 121.316406 C 87.746094 121.6875 87.355469 122.039062 86.949219 122.375 C 86.542969 122.707031 86.121094 123.019531 85.683594 123.3125 C 85.246094 123.605469 84.792969 123.875 84.332031 124.125 C 83.867188 124.371094 83.390625 124.597656 82.902344 124.800781 C 82.417969 125 81.921875 125.179688 81.417969 125.332031 C 80.914062 125.484375 80.40625 125.613281 79.886719 125.714844 C 79.371094 125.816406 78.851562 125.894531 78.328125 125.945312 C 77.804688 125.996094 77.277344 126.023438 76.753906 126.023438 C 76.226562 126.023438 75.699219 125.996094 75.175781 125.945312 C 74.652344 125.894531 74.132812 125.816406 73.617188 125.714844 C 73.101562 125.613281 72.589844 125.484375 72.085938 125.332031 C 71.582031 125.179688 71.085938 125 70.601562 124.800781 C 70.113281 124.597656 69.640625 124.371094 69.175781 124.125 C 68.710938 123.875 68.257812 123.605469 67.820312 123.3125 C 67.382812 123.019531 66.960938 122.707031 66.554688 122.375 C 66.148438 122.039062 65.757812 121.6875 65.386719 121.316406 C 65.015625 120.941406 64.660156 120.550781 64.328125 120.144531 C 63.992188 119.738281 63.679688 119.316406 63.386719 118.878906 C 63.09375 118.441406 62.824219 117.988281 62.574219 117.527344 C 62.328125 117.0625 62.101562 116.585938 61.902344 116.097656 C 61.699219 115.613281 61.523438 115.117188 61.371094 114.613281 C 61.21875 114.109375 61.089844 113.601562 60.988281 113.082031 C 60.882812 112.566406 60.808594 112.046875 60.753906 111.523438 C 60.703125 111 60.679688 110.472656 60.679688 109.949219 C 60.679688 109.421875 60.703125 108.894531 60.753906 108.371094 C 60.808594 107.847656 60.882812 107.328125 60.988281 106.8125 C 61.089844 106.296875 61.21875 105.785156 61.371094 105.28125 C 61.523438 104.777344 61.699219 104.28125 61.902344 103.796875 C 62.101562 103.308594 62.328125 102.832031 62.574219 102.371094 C 62.824219 101.90625 63.09375 101.453125 63.386719 101.015625 C 63.679688 100.578125 63.992188 100.15625 64.328125 99.75 C 64.660156 99.34375 65.015625 98.953125 65.386719 98.582031 C 65.757812 98.207031 66.148438 97.855469 66.554688 97.519531 C 66.960938 97.1875 67.382812 96.875 67.820312 96.582031 C 68.257812 96.289062 68.710938 96.019531 69.175781 95.769531 C 69.640625 95.523438 70.113281 95.296875 70.601562 95.097656 C 71.085938 94.894531 71.582031 94.71875 72.085938 94.5625 C 72.589844 94.410156 73.101562 94.285156 73.617188 94.179688 C 74.132812 94.078125 74.652344 94 75.175781 93.949219 C 75.699219 93.898438 76.226562 93.871094 76.753906 93.871094 C 77.277344 93.871094 77.804688 93.898438 78.328125 93.949219 C 78.851562 94 79.371094 94.078125 79.886719 94.179688 C 80.40625 94.285156 80.914062 94.410156 81.417969 94.5625 C 81.921875 94.71875 82.417969 94.894531 82.902344 95.097656 C 83.390625 95.296875 83.867188 95.523438 84.332031 95.769531 C 84.792969 96.019531 85.246094 96.289062 85.683594 96.582031 C 86.121094 96.875 86.542969 97.1875 86.949219 97.519531 C 87.355469 97.855469 87.746094 98.207031 88.121094 98.582031 C 88.492188 98.953125 88.84375 99.34375 89.179688 99.75 C 89.511719 100.15625 89.824219 100.578125 90.117188 101.015625 C 90.410156 101.453125 90.679688 101.90625 90.929688 102.371094 C 91.175781 102.832031 91.402344 103.308594 91.605469 103.796875 C 91.804688 104.28125 91.980469 104.777344 92.136719 105.28125 C 92.289062 105.785156 92.414062 106.296875 92.519531 106.8125 C 92.621094 107.328125 92.699219 107.847656 92.75 108.371094 C 92.800781 108.894531 92.828125 109.421875 92.828125 109.949219 Z M 92.828125 109.949219 " fill-opacity="1" fill-rule="nonzero"></path><path fill="#ffab00" d="M 157.125 109.949219 C 157.125 110.472656 157.101562 111 157.050781 111.523438 C 156.996094 112.046875 156.921875 112.566406 156.816406 113.082031 C 156.714844 113.601562 156.585938 114.109375 156.433594 114.613281 C 156.28125 115.117188 156.105469 115.613281 155.902344 116.097656 C 155.703125 116.585938 155.476562 117.0625 155.230469 117.527344 C 154.980469 117.988281 154.710938 118.441406 154.417969 118.878906 C 154.125 119.316406 153.8125 119.738281 153.476562 120.144531 C 153.144531 120.550781 152.789062 120.941406 152.417969 121.316406 C 152.046875 121.6875 151.65625 122.039062 151.25 122.375 C 150.84375 122.707031 150.421875 123.019531 149.984375 123.3125 C 149.542969 123.605469 149.09375 123.875 148.628906 124.125 C 148.164062 124.371094 147.691406 124.597656 147.203125 124.800781 C 146.71875 125 146.222656 125.179688 145.71875 125.332031 C 145.214844 125.484375 144.703125 125.613281 144.1875 125.714844 C 143.671875 125.816406 143.152344 125.894531 142.628906 125.945312 C 142.105469 125.996094 141.578125 126.023438 141.050781 126.023438 C 140.527344 126.023438 140 125.996094 139.476562 125.945312 C 138.953125 125.894531 138.433594 125.816406 137.914062 125.714844 C 137.398438 125.613281 136.890625 125.484375 136.386719 125.332031 C 135.882812 125.179688 135.386719 125 134.898438 124.800781 C 134.414062 124.597656 133.9375 124.371094 133.472656 124.125 C 133.011719 123.875 132.558594 123.605469 132.121094 123.3125 C 131.683594 123.019531 131.261719 122.707031 130.855469 122.375 C 130.445312 122.039062 130.058594 121.6875 129.683594 121.316406 C 129.3125 120.941406 128.960938 120.550781 128.625 120.144531 C 128.292969 119.738281 127.980469 119.316406 127.6875 118.878906 C 127.394531 118.441406 127.125 117.988281 126.875 117.527344 C 126.625 117.0625 126.402344 116.585938 126.199219 116.097656 C 126 115.613281 125.820312 115.117188 125.667969 114.613281 C 125.515625 114.109375 125.386719 113.601562 125.285156 113.082031 C 125.183594 112.566406 125.105469 112.046875 125.054688 111.523438 C 125.003906 111 124.976562 110.472656 124.976562 109.949219 C 124.976562 109.421875 125.003906 108.894531 125.054688 108.371094 C 125.105469 107.847656 125.183594 107.328125 125.285156 106.8125 C 125.386719 106.296875 125.515625 105.785156 125.667969 105.28125 C 125.820312 104.777344 126 104.28125 126.199219 103.796875 C 126.402344 103.308594 126.625 102.832031 126.875 102.371094 C 127.125 101.90625 127.394531 101.453125 127.6875 101.015625 C 127.980469 100.578125 128.292969 100.15625 128.625 99.75 C 128.960938 99.34375 129.3125 98.953125 129.683594 98.582031 C 130.058594 98.207031 130.445312 97.855469 130.855469 97.519531 C 131.261719 97.1875 131.683594 96.875 132.121094 96.582031 C 132.558594 96.289062 133.011719 96.019531 133.472656 95.769531 C 133.9375 95.523438 134.414062 95.296875 134.898438 95.097656 C 135.386719 94.894531 135.882812 94.71875 136.386719 94.5625 C 136.890625 94.410156 137.398438 94.285156 137.914062 94.179688 C 138.433594 94.078125 138.953125 94 139.476562 93.949219 C 140 93.898438 140.527344 93.871094 141.050781 93.871094 C 141.578125 93.871094 142.105469 93.898438 142.628906 93.949219 C 143.152344 94 143.671875 94.078125 144.1875 94.179688 C 144.703125 94.285156 145.214844 94.410156 145.71875 94.5625 C 146.222656 94.71875 146.71875 94.894531 147.203125 95.097656 C 147.691406 95.296875 148.164062 95.523438 148.628906 95.769531 C 149.09375 96.019531 149.542969 96.289062 149.984375 96.582031 C 150.421875 96.875 150.84375 97.1875 151.25 97.519531 C 151.65625 97.855469 152.046875 98.207031 152.417969 98.582031 C 152.789062 98.953125 153.144531 99.34375 153.476562 99.75 C 153.8125 100.15625 154.125 100.578125 154.417969 101.015625 C 154.710938 101.453125 154.980469 101.90625 155.230469 102.371094 C 155.476562 102.832031 155.703125 103.308594 155.902344 103.796875 C 156.105469 104.28125 156.28125 104.777344 156.433594 105.28125 C 156.585938 105.785156 156.714844 106.296875 156.816406 106.8125 C 156.921875 107.328125 156.996094 107.847656 157.050781 108.371094 C 157.101562 108.894531 157.125 109.421875 157.125 109.949219 Z M 157.125 109.949219 " fill-opacity="1" fill-rule="nonzero"></path><g clip-path="url(#864928d61c)"><path fill="#ffc400" d="M 386.808594 76.355469 C 378.148438 31.816406 323.871094 31.070312 310.488281 72.707031 C 297.105469 31.070312 242.828125 31.816406 234.171875 76.355469 C 226.316406 116.765625 310.488281 180.519531 310.488281 180.519531 C 310.488281 180.519531 394.664062 116.765625 386.808594 76.355469 Z M 386.808594 76.355469 " fill-opacity="1" fill-rule="nonzero"></path></g></svg>