<svg xmlns="http://www.w3.org/2000/svg" width="55" height="55" viewBox="0 0 55 55">
  <path fill="#E5422B" d="M47.8125 0L5.625 0C2.5 0 0 2.5 0 5.625L0 47.8125C0 50.9375 2.5 53.4375 5.625 53.4375L47.8125 53.4375C50.875 53.4375 53.4375 50.9375 53.4375 47.8125L53.4375 5.625C53.4375 2.5 50.9375 0 47.8125 0M26.625 32.5625C28.375 32.5625 30.25 31.875 32.0625 30.25L34.5625 33.125C31.9375 35.25 28.9375 36.4375 25.9375 36.4375 20 36.4375 16.25 32.5 17.125 26.9375 18 21.375 23.0625 17.4375 29 17.4375 31.875 17.4375 34.5625 18.5625 36.4375 20.625L32.9375 23.5C31.9375 22.1875 30.25 21.3125 28.375 21.3125 24.8125 21.3125 22.0625 23.625 21.5 26.9375 21 30.25 23 32.5625 26.625 32.5625"/>
</svg>
