<?xml version="1.0" encoding="utf-8"?>
<svg xmlns="http://www.w3.org/2000/svg" viewBox="-0.1114 -0.1005 234.2212 234.1007" width="234.221px" height="234.101px">
  <defs>
    <style>
    .gray { fill: #3f4b5b; }
    @media (prefers-color-scheme: dark) {
      .gray { fill: #f0f0f0; }
    }
  </style>
  </defs>
  <path fill="#f15a24" d="M112.7 150h55v29h-55z" transform="matrix(0.9999999999999999, 0, 0, 0.9999999999999999, 0, 0)"/>
  <path class="gray" d="M 156.2 57 L 78.2 57 C 71.313 56.944 65.7 62.512 65.7 69.4 L 65.7 86 L 167.7 86 L 167.7 57 L 156.2 57 Z M 155.2 103 L 65.8 103 L 65.8 179 L 94.8 179 L 94.8 132 L 155.4 132 C 160.685 131.982 165.397 128.668 167.2 123.7 C 167.614 122.58 167.817 121.394 167.8 120.2 L 167.8 103 L 155.2 103 Z M 117 234 C 26.933 233.951 -29.306 136.421 15.77 58.445 C 20.869 49.624 27.098 41.507 34.3 34.3 C 97.94 -29.433 206.709 -0.374 230.083 86.606 C 245.262 143.088 216.401 202.102 162.5 224.8 C 148.107 230.898 132.631 234.028 117 234 Z M 117 15.5 C 38.865 15.456 -10.017 100.011 29.012 167.7 C 33.46 175.413 38.902 182.507 45.2 188.8 C 100.472 244.072 194.85 218.783 215.081 143.281 C 224.47 108.24 214.452 70.852 188.8 45.2 C 169.781 26.139 143.926 15.481 117 15.6 L 117 15.5 Z" transform="matrix(0.9999999999999999, 0, 0, 0.9999999999999999, 0, 0)"/>
</svg>
